<svg xmlns="http://www.w3.org/2000/svg" xmlns:xlink="http://www.w3.org/1999/xlink" xmlns:lucid="lucid" width="1740" height="720"><g transform="translate(0 1968)" lucid:page-tab-id="0_0"><path d="M0-1968h1740v720H0z" fill="#fff"/><path d="M240.8-1869c0-2.76 1.72-6.43 3.84-8.2l71.52-59.6c2.12-1.77 6.08-3.2 8.84-3.2h1169.2c2.76 0 5 2.24 5 5v570.8c0 2.76-1.43 6.72-3.2 8.84l-59.6 71.52c-1.77 2.12-5.44 3.84-8.2 3.84H245.8c-2.76 0-5-2.24-5-5z" stroke="#000" stroke-width="2" fill="#fff"/><path d="M245.8-1874c-2.76 0-3.28-1.43-1.16-3.2l71.52-59.6c2.12-1.77 6.08-3.2 8.84-3.2h1169.2c2.76 0 3.42 1.58 1.46 3.54l-58.92 58.92c-1.96 1.96-5.78 3.54-8.54 3.54z" stroke="#000" stroke-width="2" fill="#e6e6e6"/><path d="M1433.2-1869c0-2.76 1.58-6.58 3.54-8.54l58.92-58.92c1.96-1.96 3.54-1.3 3.54 1.46v570.8c0 2.76-1.43 6.72-3.2 8.84l-59.6 71.52c-1.77 2.12-3.2 1.6-3.2-1.16z" stroke="#000" stroke-width="2" fill="#ccc"/><use xlink:href="#a" transform="matrix(1,0,0,1,248.79999999999995,-1866) translate(0 38)"/><use xlink:href="#b" transform="matrix(1,0,0,1,248.79999999999995,-1866) translate(84.6 38)"/><use xlink:href="#c" transform="matrix(1,0,0,1,248.79999999999995,-1866) translate(183.24 38)"/><use xlink:href="#d" transform="matrix(1,0,0,1,248.79999999999995,-1866) translate(267.24 38)"/><use xlink:href="#e" transform="matrix(1,0,0,1,248.79999999999995,-1866) translate(426.71999999999997 38)"/><use xlink:href="#f" transform="matrix(1,0,0,1,248.79999999999995,-1866) translate(477.88 38)"/><use xlink:href="#g" transform="matrix(1,0,0,1,248.79999999999995,-1866) translate(527.52 38)"/><use xlink:href="#h" transform="matrix(1,0,0,1,248.79999999999995,-1866) translate(0 88)"/><use xlink:href="#i" transform="matrix(1,0,0,1,248.79999999999995,-1866) translate(108.52000000000001 88)"/><path d="M293.32-1762.3c-2.76 0-5 2.23-5 5v446.92c0 2.76 2.24 5 5 5h1072.23c2.76 0 5-2.24 5-5v-446.93c0-2.77-2.24-5-5-5z" stroke="#000" stroke-width="2" fill="#fff"/><path d="M1360.55-1752.3h-15v20h15z" stroke="#000" fill="#fff"/><path d="M1350.55-1748.97h-10v3.33h10zm0 10h-10v3.33h10z" stroke="#000" fill="#fff"/><use xlink:href="#j" transform="matrix(1,0,0,1,288.3225600000002,-1762.3076923076924) translate(236.10500000000008 43.01)"/><use xlink:href="#k" transform="matrix(1,0,0,1,288.3225600000002,-1762.3076923076924) translate(375.7850000000001 43.01)"/><use xlink:href="#l" transform="matrix(1,0,0,1,288.3225600000002,-1762.3076923076924) translate(649.665 43.01)"/><use xlink:href="#m" transform="matrix(1,0,0,1,288.3225600000002,-1762.3076923076924) translate(541.005 93.00999999999999)"/><use xlink:href="#m" transform="matrix(1,0,0,1,288.3225600000002,-1762.3076923076924) translate(541.005 143.01)"/><use xlink:href="#m" transform="matrix(1,0,0,1,288.3225600000002,-1762.3076923076924) translate(541.005 193.01)"/><use xlink:href="#m" transform="matrix(1,0,0,1,288.3225600000002,-1762.3076923076924) translate(541.005 243.01)"/><use xlink:href="#m" transform="matrix(1,0,0,1,288.3225600000002,-1762.3076923076924) translate(541.005 293.01)"/><use xlink:href="#m" transform="matrix(1,0,0,1,288.3225600000002,-1762.3076923076924) translate(541.005 343.01)"/><use xlink:href="#m" transform="matrix(1,0,0,1,288.3225600000002,-1762.3076923076924) translate(541.005 393.01)"/><path d="M348.7-1673.7c-2.77 0-5 2.25-5 5v332.7c0 2.76 2.23 5 5 5H755c2.76 0 5-2.24 5-5v-332.7c0-2.75-2.24-5-5-5z" stroke="#000" stroke-width="2" fill="#fff"/><path d="M750-1663.7h-15v20h15z" stroke="#000" fill="#fff"/><path d="M740-1660.36h-10v3.33h10zm0 10h-10v3.33h10z" stroke="#000" fill="#fff"/><use xlink:href="#j" transform="matrix(1,0,0,1,343.6921600000001,-1673.6923076923076) translate(97.44500000000001 86.234375)"/><use xlink:href="#n" transform="matrix(1,0,0,1,343.6921600000001,-1673.6923076923076) translate(237.125 86.234375)"/><use xlink:href="#m" transform="matrix(1,0,0,1,343.6921600000001,-1673.6923076923076) translate(208.005 136.234375)"/><use xlink:href="#m" transform="matrix(1,0,0,1,343.6921600000001,-1673.6923076923076) translate(208.005 186.234375)"/><use xlink:href="#m" transform="matrix(1,0,0,1,343.6921600000001,-1673.6923076923076) translate(208.005 236.234375)"/><use xlink:href="#o" transform="matrix(1,0,0,1,343.6921600000001,-1673.6923076923076) translate(208.005 286.234375)"/><path d="M925-1673.35c-2.76 0-5 2.24-5 5v332.7c0 2.76 2.24 5 5 5h392.7c2.75 0 5-2.24 5-5v-332.7c0-2.76-2.25-5-5-5z" stroke="#000" stroke-width="2" fill="#fff"/><path d="M1312.7-1663.35h-15v20h15z" stroke="#000" fill="#fff"/><path d="M1302.7-1660h-10v3.32h10zm0 10h-10v3.32h10z" stroke="#000" fill="#fff"/><g><use xlink:href="#p" transform="matrix(1,0,0,1,920,-1673.3461538461538) translate(117.365 86.234375)"/><use xlink:href="#q" transform="matrix(1,0,0,1,920,-1673.3461538461538) translate(235.685 86.234375)"/><use xlink:href="#m" transform="matrix(1,0,0,1,920,-1673.3461538461538) translate(201.505 136.234375)"/><use xlink:href="#m" transform="matrix(1,0,0,1,920,-1673.3461538461538) translate(201.505 186.234375)"/><use xlink:href="#m" transform="matrix(1,0,0,1,920,-1673.3461538461538) translate(201.505 236.234375)"/><use xlink:href="#o" transform="matrix(1,0,0,1,920,-1673.3461538461538) translate(201.505 286.234375)"/></g><path d="M383.83-1554.23c0-2.76 2.24-5 5-5H686c2.77 0 5 2.24 5 5v142.3c0 2.77-2.23 5-5 5H388.84c-2.76 0-5-2.23-5-5z" stroke="#000" stroke-width="2" fill="#fff"/><path d="M363.83-1526.15c0-2.77 2.24-5 5-5h30c2.76 0 5 2.23 5 5v10c0 2.76-2.24 5-5 5h-30c-2.76 0-5-2.24-5-5zM363.83-1450c0-2.76 2.24-5 5-5h30c2.76 0 5 2.24 5 5v10c0 2.76-2.24 5-5 5h-30c-2.76 0-5-2.24-5-5z" stroke="#000" stroke-width="2" fill="#fff"/><g><use xlink:href="#r" transform="matrix(1,0,0,1,429.2633600000001,-1544.0000000000002) translate(28.879999999999995 49)"/><use xlink:href="#s" transform="matrix(1,0,0,1,429.2633600000001,-1544.0000000000002) translate(107.32 49)"/><use xlink:href="#t" transform="matrix(1,0,0,1,429.2633600000001,-1544.0000000000002) translate(23.24000000000001 99)"/><use xlink:href="#u" transform="matrix(1,0,0,1,429.2633600000001,-1544.0000000000002) translate(123.40000000000002 99)"/></g><path d="M962.7-1554.23c0-2.76 2.23-5 5-5h297.17c2.77 0 5 2.24 5 5v142.3c0 2.77-2.23 5-5 5H967.7c-2.77 0-5-2.23-5-5z" stroke="#000" stroke-width="2" fill="#fff"/><path d="M942.7-1526.15c0-2.77 2.23-5 5-5h30c2.75 0 5 2.23 5 5v10c0 2.76-2.25 5-5 5h-30c-2.77 0-5-2.24-5-5zM942.7-1450c0-2.76 2.23-5 5-5h30c2.75 0 5 2.24 5 5v10c0 2.76-2.25 5-5 5h-30c-2.77 0-5-2.24-5-5z" stroke="#000" stroke-width="2" fill="#fff"/><g><use xlink:href="#v" transform="matrix(1,0,0,1,1008.1273600000001,-1544.0000000000002) translate(11.280000000000001 49)"/><use xlink:href="#w" transform="matrix(1,0,0,1,1008.1273600000001,-1544.0000000000002) translate(79.38 99)"/></g><g><path d="M853.34-1483.08H839.5m-17.62-25.38c-13.9 0-25.16 11.36-25.16 25.38s11.26 25.4 25.16 25.4m-25.16-25.4h-6.3" stroke="#000" stroke-width="2" fill="none"/><path d="M821.88-1465.3c-9.73 0-17.6-7.96-17.6-17.78 0-9.8 7.87-17.77 17.6-17.77s17.62 7.96 17.62 17.77c0 9.82-7.9 17.77-17.62 17.77z" stroke="#000" stroke-width="2" fill="#fff"/><path d="M821.88-1508.46c-13.9 0-25.16 11.36-25.16 25.38s11.26 25.4 25.16 25.4 25.17-11.38 25.17-25.4c0-14.02-11.27-25.38-25.17-25.38z" fill="none"/></g><path d="M853.34-1483.08H961.7" stroke="#000" stroke-width="2" fill="none"/><path d="M853.34-1482.08h-3v-2h3zM962.7-1482.08h-1v-2h1z"/><path d="M790.42-1483.08h-98.4" stroke="#000" stroke-width="2" fill="none"/><path d="M793.42-1482.08h-3v-2h3zM692-1482.08h-1v-2h1z"/><defs><path d="M173-695V0H81v-695h92" id="x"/><path d="M408-349c1-70-33-95-99-96-81-1-123 46-153 98V0H71v-503h80c2 29-1 64 5 90 27-57 88-102 175-100 102 0 163 55 163 160V0h-86v-349" id="y"/><path d="M319-9c-23 11-55 19-90 19-95 0-139-52-139-147v-304H30v-62h60v-96h86v96h126v62H176v300c1 51 11 82 61 82 24 0 50-6 67-15" id="z"/><path d="M386-299c10-94-32-153-114-153-85 0-131 65-141 153h255zM297-58c61 0 103-21 140-46l20 61c-37 31-98 54-168 53C128 11 38-89 41-252c3-156 80-261 233-261 151 0 219 106 194 274H128c4 121 60 181 169 181" id="A"/><path d="M156-725V0H71v-725h85" id="B"/><g id="a"><use transform="matrix(0.04,0,0,0.04,0,0)" xlink:href="#x"/><use transform="matrix(0.04,0,0,0.04,10.16,0)" xlink:href="#y"/><use transform="matrix(0.04,0,0,0.04,32.56,0)" xlink:href="#z"/><use transform="matrix(0.04,0,0,0.04,46.32,0)" xlink:href="#A"/><use transform="matrix(0.04,0,0,0.04,66.88,0)" xlink:href="#B"/></g><path d="M300-302L96 0H6l251-366L39-695h108l177 266 177-266h90L367-364 611 0H501" id="C"/><path d="M528-252c0 160-90 262-245 262S41-93 41-252c0-160 87-261 242-261s245 101 245 261zm-400 0c2 116 45 199 155 199 111 0 158-82 158-199s-47-198-158-198c-110 0-153 82-155 198" id="D"/><g id="b"><use transform="matrix(0.04,0,0,0.04,0,0)" xlink:href="#C"/><use transform="matrix(0.04,0,0,0.04,24.28,0)" xlink:href="#A"/><use transform="matrix(0.04,0,0,0.04,44.84,0)" xlink:href="#D"/><use transform="matrix(0.04,0,0,0.04,67.60000000000001,0)" xlink:href="#y"/></g><path d="M582-51c-43 33-119 63-202 61C165 1 46-125 46-344c0-225 128-350 349-360 85-1 142 19 197 46l-26 81c-50-33-103-62-184-58-161 7-238 122-238 291 0 170 76 279 241 285 71 0 124-25 172-53" id="E"/><path d="M461-486c1-96-64-141-160-141H173v308h120c107-3 166-59 168-167zm92-1c-4 159-100 233-260 236H173V0H81v-695h220c148-1 252 64 252 208" id="F"/><path d="M336 10C172 10 66-72 66-237v-458h92v457c-2 120 68 175 182 176 116-3 186-58 186-176v-457l79-1v454C600-77 500 10 336 10" id="G"/><g id="c"><use transform="matrix(0.04,0,0,0.04,0,0)" xlink:href="#E"/><use transform="matrix(0.04,0,0,0.04,24.76,0)" xlink:href="#F"/><use transform="matrix(0.04,0,0,0.04,48.52,0)" xlink:href="#G"/></g><path d="M81-695h401v68H173v232h268v68H173v259h314V0H81v-695" id="H"/><path d="M499-224C501-34 323 37 129-1 98-8 74-18 56-29l22-66c32 20 95 39 150 38 105 2 180-62 179-165 3-98-54-150-143-152-55 0-90 23-116 50H77v-371h383v68H156v226c27-27 71-42 128-43 137 5 214 81 215 220" id="I"/><path d="M56-331h233v70H56v-70" id="J"/><path d="M254-704c137-2 219 70 219 198 0 165-111 244-205 332-41 34-84 69-130 106h342V0H59v-80c114-107 234-185 302-322 50-101 17-245-114-237-67 4-116 27-160 54l-22-71c45-30 115-48 189-48" id="K"/><path d="M545-222c0 147-96 232-242 232C139 10 50-92 50-258c0-210 127-318 258-404 24-14 46-24 66-33h112v9c-159 84-285 158-335 323 35-52 92-85 175-85 139 0 219 84 219 226zm-404-67c-5 137 34 234 159 234 100 0 152-62 154-165 2-105-53-164-148-166-82 0-130 47-165 97" id="L"/><path d="M614-350c0 207-84 360-281 360C135 10 50-141 50-348s85-356 283-356c197 0 281 148 281 354zm-473 3c0 162 41 292 191 292s191-130 191-292c0-161-40-292-190-292-151 0-192 130-192 292" id="M"/><g id="d"><use transform="matrix(0.04,0,0,0.04,0,0)" xlink:href="#H"/><use transform="matrix(0.04,0,0,0.04,22.04,0)" xlink:href="#I"/><use transform="matrix(0.04,0,0,0.04,43.959999999999994,0)" xlink:href="#J"/><use transform="matrix(0.04,0,0,0.04,56.75999999999999,0)" xlink:href="#K"/><use transform="matrix(0.04,0,0,0.04,79.32,0)" xlink:href="#L"/><use transform="matrix(0.04,0,0,0.04,102.96000000000001,0)" xlink:href="#I"/><use transform="matrix(0.04,0,0,0.04,124.27999999999999,0)" xlink:href="#M"/></g><path d="M14-503h89L248-58l143-445h79L302 0H181" id="N"/><g id="e"><use transform="matrix(0.04,0,0,0.04,0,0)" xlink:href="#N"/><use transform="matrix(0.04,0,0,0.04,19.36,0)" xlink:href="#K"/></g><path d="M750 151c-59 28-144 41-232 42C233 184 41 55 41-230c0-232 123-373 295-440 169-68 411-26 516 64 73 62 134 151 132 281-3 169-66 295-233 303-82 2-127-39-146-97-31 56-83 97-161 97-117 0-172-82-172-204 0-148 73-258 216-258 77 0 122 40 141 105l38-76h55l-44 243c-10 70 11 137 82 133 115-7 154-110 154-234 0-227-155-337-383-337-262 0-420 153-420 415 0 253 159 367 410 373 87 2 168-19 218-43zM501-424c-100 0-137 97-137 202 0 81 25 143 100 143 100 0 138-99 138-204 0-80-26-141-101-141" id="O"/><use transform="matrix(0.04,0,0,0.04,0,0)" xlink:href="#O" id="f"/><path d="M165-50c1 31-25 57-57 56-32 1-59-25-58-56-1-33 26-58 58-57 33-1 58 24 57 57" id="P"/><path d="M674-273C669-90 569 10 383 10 169 10 48-127 48-344c0-226 130-352 356-360 99-2 170 24 226 56l-26 79c-53-37-107-67-198-66-174 6-260 116-260 291 0 166 74 286 237 286 142 0 205-87 199-236H356v-68h318v89" id="Q"/><path d="M530-310H173V0H81v-695h92v317h357v-317h92V0h-92v-310" id="R"/><path d="M36 0v-69l288-376H44v-58h358v75L120-58h283V0H36" id="S"/><g id="g"><use transform="matrix(0.04,0,0,0.04,0,0)" xlink:href="#K"/><use transform="matrix(0.04,0,0,0.04,23.16,0)" xlink:href="#P"/><use transform="matrix(0.04,0,0,0.04,31.159999999999997,0)" xlink:href="#L"/><use transform="matrix(0.04,0,0,0.04,54.599999999999994,0)" xlink:href="#M"/><use transform="matrix(0.04,0,0,0.04,81.16,0)" xlink:href="#Q"/><use transform="matrix(0.04,0,0,0.04,110.16,0)" xlink:href="#R"/><use transform="matrix(0.04,0,0,0.04,138.28,0)" xlink:href="#S"/></g><path d="M373-610L108-233h265v-377zm85 445V0h-85v-165H38v-84l315-446h105v462h94v68h-94" id="T"/><path d="M420-524c0-119-130-103-246-103v230h97c85 0 149-42 149-127zm31 322c0-136-137-130-277-127v261c142 5 277 5 277-134zm96-2C543-56 435 0 286 0H82v-695h196c138 1 231 39 234 166 1 98-59 142-140 161 117 15 175 70 175 164" id="U"/><g id="h"><use transform="matrix(0.04,0,0,0.04,0,0)" xlink:href="#L"/><use transform="matrix(0.04,0,0,0.04,23.64,0)" xlink:href="#T"/><use transform="matrix(0.04,0,0,0.04,47.24,0)" xlink:href="#Q"/><use transform="matrix(0.04,0,0,0.04,76.24000000000001,0)" xlink:href="#U"/></g><path d="M547-365c1-172-75-262-242-262H173v559h122c175-5 249-116 252-297zm98-6C645-139 521-9 295 0H81v-695h224c217 1 340 103 340 324" id="V"/><path d="M450-492c7-143-135-140-277-135v297h113c106-1 163-55 164-162zm95 2c1 118-58 183-146 212L576 0H473L306-262H173V0H81v-695h213c153 0 250 59 251 205" id="W"/><path d="M484-201C484-21 296 37 116-4c-31-9-57-20-76-33l20-73c40 31 95 54 172 52 98-2 157-49 161-144 4-121-95-141-226-132v-68h77c77 0 124-44 124-122 0-148-206-137-292-64l-20-70c46-32 105-45 178-46 131-2 219 56 221 175 2 86-53 139-121 154 85 20 150 71 150 174" id="X"/><g id="i"><use transform="matrix(0.04,0,0,0.04,0,0)" xlink:href="#V"/><use transform="matrix(0.04,0,0,0.04,27.64,0)" xlink:href="#V"/><use transform="matrix(0.04,0,0,0.04,55.28,0)" xlink:href="#W"/><use transform="matrix(0.04,0,0,0.04,79.76,0)" xlink:href="#X"/></g><path d="M550-252c0 157-76 262-226 262-86 0-142-42-174-101l-9 91H71v-725h85v303c33-53 88-94 172-91 149 5 222 105 222 261zm-403 0c1 121 50 201 164 201 112 0 150-84 151-201 2-121-47-201-151-201-114 0-162 81-164 201" id="Y"/><path d="M395-90C367-34 310 12 222 10 121 8 66-54 66-164v-339h86v339c-1 67 29 104 94 104 83 0 118-44 149-101v-342h85V0h-75c-4-29-3-64-10-90" id="Z"/><g id="j"><use transform="matrix(0.04,0,0,0.04,0,0)" xlink:href="#G"/><use transform="matrix(0.04,0,0,0.04,26.84,0)" xlink:href="#Y"/><use transform="matrix(0.04,0,0,0.04,50.6,0)" xlink:href="#Z"/><use transform="matrix(0.04,0,0,0.04,72.64,0)" xlink:href="#y"/><use transform="matrix(0.04,0,0,0.04,95.04,0)" xlink:href="#z"/><use transform="matrix(0.04,0,0,0.04,109,0)" xlink:href="#Z"/></g><path d="M195 0v-611L58-471l-31-63 164-161h93V0h-89" id="aa"/><path d="M1 116l317-849h68L69 116H1" id="ab"/><path d="M438-34c-35 26-86 44-148 44C131 3 41-91 41-252c0-189 140-289 337-252 24 6 44 14 60 25l-25 76c-37-25-64-44-122-44-110 6-160 80-163 195-2 123 60 193 175 194 44-1 88-18 116-39" id="ac"/><path d="M156-725V0H71v-725h85zM379 0L169-268l207-235h89L260-278 479 0H379" id="ad"/><path d="M320-423c-84-3-135 40-164 97V0H71v-503h75c4 36 3 76 10 109 30-61 77-110 164-114v85" id="ae"/><g id="k"><use transform="matrix(0.04,0,0,0.04,0,0)" xlink:href="#aa"/><use transform="matrix(0.04,0,0,0.04,15,0)" xlink:href="#T"/><use transform="matrix(0.04,0,0,0.04,38.6,0)" xlink:href="#P"/><use transform="matrix(0.04,0,0,0.04,45.6,0)" xlink:href="#M"/><use transform="matrix(0.04,0,0,0.04,72.16,0)" xlink:href="#T"/><use transform="matrix(0.04,0,0,0.04,95.75999999999999,0)" xlink:href="#P"/><use transform="matrix(0.04,0,0,0.04,103.35999999999999,0)" xlink:href="#T"/><use transform="matrix(0.04,0,0,0.04,126.55999999999996,0)" xlink:href="#ab"/><use transform="matrix(0.04,0,0,0.04,142.03999999999996,0)" xlink:href="#V"/><use transform="matrix(0.04,0,0,0.04,169.87999999999994,0)" xlink:href="#D"/><use transform="matrix(0.04,0,0,0.04,192.63999999999993,0)" xlink:href="#ac"/><use transform="matrix(0.04,0,0,0.04,211.39999999999992,0)" xlink:href="#ad"/><use transform="matrix(0.04,0,0,0.04,230.4799999999999,0)" xlink:href="#A"/><use transform="matrix(0.04,0,0,0.04,251.0399999999999,0)" xlink:href="#ae"/></g><path d="M537-190C537-52 432 10 292 10 151 10 45-49 45-187c0-101 69-158 152-182-71-21-127-69-127-158 5-125 95-177 222-177s217 51 222 175c0 89-58 138-128 160 84 22 151 78 151 179zM157-516c-1 74 61 114 135 113 74 1 136-39 135-113 2-78-58-124-135-123-76 0-137 45-135 123zm-23 314c-2 93 67 147 158 147 96-3 156-52 156-147 0-91-64-133-156-136-88-1-160 48-158 136" id="af"/><g id="l"><use transform="matrix(0.04,0,0,0.04,0,0)" xlink:href="#aa"/><use transform="matrix(0.04,0,0,0.04,15.4,0)" xlink:href="#af"/><use transform="matrix(0.04,0,0,0.04,38.68,0)" xlink:href="#P"/><use transform="matrix(0.04,0,0,0.04,45.68,0)" xlink:href="#M"/><use transform="matrix(0.04,0,0,0.04,72.03999999999999,0)" xlink:href="#X"/><use transform="matrix(0.04,0,0,0.04,92.91999999999999,0)" xlink:href="#P"/><use transform="matrix(0.04,0,0,0.04,99.31999999999998,0)" xlink:href="#aa"/><use transform="matrix(0.04,0,0,0.04,114.71999999999998,0)" xlink:href="#J"/><use transform="matrix(0.04,0,0,0.04,128.92,0)" xlink:href="#ac"/><use transform="matrix(0.04,0,0,0.04,147.67999999999998,0)" xlink:href="#A"/></g><path d="M112 0l307-620H51v-75h449v92L205 0h-93" id="ag"/><g id="n"><use transform="matrix(0.04,0,0,0.04,0,0)" xlink:href="#aa"/><use transform="matrix(0.04,0,0,0.04,15,0)" xlink:href="#ag"/><use transform="matrix(0.04,0,0,0.04,33.08,0)" xlink:href="#P"/><use transform="matrix(0.04,0,0,0.04,39.48,0)" xlink:href="#aa"/><use transform="matrix(0.04,0,0,0.04,54.879999999999995,0)" xlink:href="#M"/></g><path d="M303-622L189-273h229zm137 416H167L100 0H20l228-695h128L605 0h-97" id="ah"/><path d="M147-252c1 121 50 201 164 201 105 0 150-78 150-201 0-121-46-201-150-201-114 0-162 81-164 201zm402 0c0 157-74 262-225 262-81 0-135-40-168-92v269H71v-690h75l6 89c34-56 89-102 176-99 149 5 221 105 221 261" id="ai"/><path d="M167-632c1 30-23 54-54 53-32 1-54-22-54-53s22-56 54-55c31-1 55 25 54 55zm-11 129V0H71v-503h85" id="aj"/><g id="p"><use transform="matrix(0.04,0,0,0.04,0,0)" xlink:href="#ah"/><use transform="matrix(0.04,0,0,0.04,25,0)" xlink:href="#ai"/><use transform="matrix(0.04,0,0,0.04,48.6,0)" xlink:href="#B"/><use transform="matrix(0.04,0,0,0.04,57.68,0)" xlink:href="#aj"/><use transform="matrix(0.04,0,0,0.04,66.72,0)" xlink:href="#y"/><use transform="matrix(0.04,0,0,0.04,89.12,0)" xlink:href="#A"/></g><g id="q"><use transform="matrix(0.04,0,0,0.04,0,0)" xlink:href="#X"/><use transform="matrix(0.04,0,0,0.04,20.88,0)" xlink:href="#P"/><use transform="matrix(0.04,0,0,0.04,28.479999999999997,0)" xlink:href="#ag"/></g><path d="M378-704c210 12 333 138 333 355 0 172-83 281-205 334-133 58-293 3-360-71C91-147 46-235 46-350c2-172 84-278 206-330 40-16 82-24 126-24zM144-347c0 169 72 288 234 288s235-119 235-288c0-170-72-288-235-288S144-516 144-347" id="ak"/><g id="r"><use transform="matrix(0.04,0,0,0.04,0,0)" xlink:href="#ak"/><use transform="matrix(0.04,0,0,0.04,30.080000000000002,0)" xlink:href="#S"/><use transform="matrix(0.04,0,0,0.04,47.04,0)" xlink:href="#D"/></g><g id="s"><use transform="matrix(0.04,0,0,0.04,0,0)" xlink:href="#ac"/><use transform="matrix(0.04,0,0,0.04,18.76,0)" xlink:href="#B"/><use transform="matrix(0.04,0,0,0.04,27.840000000000003,0)" xlink:href="#aj"/><use transform="matrix(0.04,0,0,0.04,36.88,0)" xlink:href="#A"/><use transform="matrix(0.04,0,0,0.04,57.44,0)" xlink:href="#y"/><use transform="matrix(0.04,0,0,0.04,79.84,0)" xlink:href="#z"/></g><path d="M158-301c0 185 56 332 151 436h-69C137 37 76-101 76-298c1-196 57-342 164-435h69c-96 97-151 243-151 432" id="al"/><g id="t"><use transform="matrix(0.04,0,0,0.04,0,0)" xlink:href="#al"/><use transform="matrix(0.04,0,0,0.04,13.6,0)" xlink:href="#Q"/><use transform="matrix(0.04,0,0,0.04,42.6,0)" xlink:href="#E"/><use transform="matrix(0.04,0,0,0.04,66.76,0)" xlink:href="#E"/></g><path d="M160-301c0 185-56 332-151 436h69c103-98 164-236 164-433-1-196-57-342-164-435H9c96 97 151 243 151 432" id="am"/><g id="u"><use transform="matrix(0.04,0,0,0.04,0,0)" xlink:href="#ag"/><use transform="matrix(0.04,0,0,0.04,18.080000000000002,0)" xlink:href="#P"/><use transform="matrix(0.04,0,0,0.04,27.080000000000002,0)" xlink:href="#X"/><use transform="matrix(0.04,0,0,0.04,47.959999999999994,0)" xlink:href="#P"/><use transform="matrix(0.04,0,0,0.04,54.35999999999999,0)" xlink:href="#aa"/><use transform="matrix(0.04,0,0,0.04,69.75999999999999,0)" xlink:href="#am"/></g><path d="M398-142C398 32 148 37 26-30l28-71c52 51 259 83 259-35 0-98-157-80-216-134-30-22-51-52-51-104-10-155 215-162 333-111l-20 70c-54-49-279-62-224 67 75 81 263 42 263 206" id="an"/><path d="M127-252c-2 111 51 199 152 199 108 0 165-84 165-199s-57-200-166-200c-107 0-148 87-151 200zM519-53c-2 163-87 242-253 242-80 2-141-17-185-41l31-70c32 21 92 43 155 43 136 0 173-75 167-212-33 55-87 99-171 99C115 8 41-99 41-252c0-154 75-261 224-261 86 0 141 47 175 103 2-31 3-65 7-93h77c-11 141-3 301-5 450" id="ao"/><path d="M485-195C482-48 378 6 231 10 136 12 72-15 21-49l29-76c46 37 104 66 188 66 112 0 184-79 142-179-58-82-201-83-274-150-35-30-61-69-60-133 0-119 97-185 224-183 86-2 142 17 190 41l-23 77c-71-66-313-82-304 60 7 111 133 115 215 154 72 34 136 74 137 177" id="ap"/><path d="M711-349C711-154 608-41 446-4c86 22 172 40 274 50l-33 85C522 98 385 48 254-14 134-73 46-173 46-350c0-172 84-278 206-330 40-16 82-24 126-24 210 12 333 138 333 355zm-567 2c0 169 72 288 234 288 164 0 235-117 235-288 0-170-72-288-235-288S144-516 144-347" id="aq"/><path d="M81-695h92v627h318V0H81v-695" id="ar"/><g id="v"><use transform="matrix(0.04,0,0,0.04,0,0)" xlink:href="#F"/><use transform="matrix(0.04,0,0,0.04,22.96,0)" xlink:href="#D"/><use transform="matrix(0.04,0,0,0.04,45.72,0)" xlink:href="#an"/><use transform="matrix(0.04,0,0,0.04,63.120000000000005,0)" xlink:href="#z"/><use transform="matrix(0.04,0,0,0.04,76.88,0)" xlink:href="#ao"/><use transform="matrix(0.04,0,0,0.04,100.56,0)" xlink:href="#ae"/><use transform="matrix(0.04,0,0,0.04,114.36,0)" xlink:href="#A"/><use transform="matrix(0.04,0,0,0.04,134.92,0)" xlink:href="#ap"/><use transform="matrix(0.04,0,0,0.04,155.72,0)" xlink:href="#aq"/><use transform="matrix(0.04,0,0,0.04,186,0)" xlink:href="#ar"/></g><g id="w"><use transform="matrix(0.04,0,0,0.04,0,0)" xlink:href="#aa"/><use transform="matrix(0.04,0,0,0.04,15.4,0)" xlink:href="#M"/><use transform="matrix(0.04,0,0,0.04,40.36,0)" xlink:href="#P"/><use transform="matrix(0.04,0,0,0.04,49.36,0)" xlink:href="#X"/></g></defs></g></svg>