<svg xmlns="http://www.w3.org/2000/svg" xmlns:xlink="http://www.w3.org/1999/xlink" xmlns:lucid="lucid" width="1740" height="720"><g transform="translate(0 0)" lucid:page-tab-id="0_0"><path d="M0 0h1760v1360H0z" fill="#fff"/><path d="M560 20h160v60H560z" stroke="#000" stroke-width="2" fill="#fff"/><use xlink:href="#a" transform="matrix(1,0,0,1,560,20) translate(41.19388888888888 40.80555555555556)"/><path d="M1040 20h160v60h-160z" stroke="#000" stroke-width="2" fill="#fff"/><use xlink:href="#b" transform="matrix(1,0,0,1,1040,20) translate(37.196111111111094 40.80555555555556)"/><path d="M620 120h40v60h-40zM1100 180h40v60h-40z" stroke="#000" stroke-width="2" fill="#fff"/><path d="M660 180h421.76" stroke="#000" stroke-width="2" fill="none"/><path d="M1096.76 180l-14.26 4.64v-9.28z" stroke="#000" stroke-width="2"/><use xlink:href="#c" transform="matrix(1,0,0,1,823.3777777777777,137.11111111111114) translate(0.005000000000002558 29.555555555555557)"/><path d="M620 240h40v60h-40z" stroke="#000" stroke-width="2" fill="#fff"/><path d="M640 81v38" fill="none"/><path d="M640 81v12.67m0 12.66V119" stroke="#000" stroke-width="2" fill="none"/><path d="M641 81h-2v-1h2zM641 120h-2v-1h2z"/><path d="M1120 81v98" fill="none"/><path d="M1120 81v10.9m0 10.88v21.78m0 10.88v21.78m0 10.9V179" stroke="#000" stroke-width="2" fill="none"/><path d="M1121 81h-2v-1h2zM1121 180h-2v-1h2z"/><path d="M1100 240H661.96" fill="none"/><path d="M1100 240h-20.86m-20.86 0h-41.72m-20.85 0H954m-20.87 0H891.4m-20.85 0h-41.7m-20.87 0h-41.72m-20.86 0h-41.72m-20.86 0h-20.86M680.04 229.3L661.96 240l18.08 10.7" stroke="#000" stroke-width="2" fill="none"/><path d="M1100 300h40v60h-40z" stroke="#000" stroke-width="2" fill="#fff"/><path d="M660 300h421.76" stroke="#000" stroke-width="2" fill="none"/><path d="M1096.76 300l-14.26 4.64v-9.28z" stroke="#000" stroke-width="2"/><use xlink:href="#d" transform="matrix(1,0,0,1,773.6155555555555,257.1111111111111) translate(0.0049999999999954525 29.555555555555557)"/><use xlink:href="#e" transform="matrix(1,0,0,1,773.6155555555555,257.1111111111111) translate(74.92055555555557 29.555555555555557)"/><use xlink:href="#f" transform="matrix(1,0,0,1,773.6155555555555,257.1111111111111) translate(160.13388888888892 29.555555555555557)"/><path d="M640 181v58" fill="none"/><path d="M640 181v9.67m0 9.66v19.34m0 9.66V239" stroke="#000" stroke-width="2" fill="none"/><path d="M641 181h-2v-1h2zM641 240h-2v-1h2z"/><path d="M1120 241v58" fill="none"/><path d="M1120 241v9.67m0 9.66v19.34m0 9.66V299" stroke="#000" stroke-width="2" fill="none"/><path d="M1121 241h-2v-1h2zM1121 300h-2v-1h2z"/><path d="M620 360h40v60h-40z" stroke="#000" stroke-width="2" fill="#fff"/><path d="M1100 360H661.96" fill="none"/><path d="M1100 360h-20.86m-20.86 0h-41.72m-20.85 0H954m-20.87 0H891.4m-20.85 0h-41.7m-20.87 0h-41.72m-20.86 0h-41.72m-20.86 0h-20.86M680.04 349.3L661.96 360l18.08 10.7" stroke="#000" stroke-width="2" fill="none"/><path d="M1100 420h40v280h-40z" stroke="#000" stroke-width="2" fill="#fff"/><path d="M660 420h421.76" stroke="#000" stroke-width="2" fill="none"/><path d="M1096.76 420l-14.26 4.64v-9.28z" stroke="#000" stroke-width="2"/><use xlink:href="#d" transform="matrix(1,0,0,1,722.9355555555555,377.1111111111111) translate(0.0049999999999954525 29.555555555555557)"/><use xlink:href="#e" transform="matrix(1,0,0,1,722.9355555555555,377.1111111111111) translate(74.92055555555557 29.555555555555557)"/><use xlink:href="#g" transform="matrix(1,0,0,1,722.9355555555555,377.1111111111111) translate(160.13388888888892 29.555555555555557)"/><path d="M620 580h40v120h-40z" stroke="#000" stroke-width="2" fill="#fff"/><path d="M1099 580H661.96" fill="none"/><path d="M1099 580h-20.8m-20.82 0h-41.62m-20.82 0h-41.62m-20.8 0h-41.63m-20.82 0h-41.63m-20.8 0H766m-20.8 0h-41.63m-20.82 0h-20.82M679.18 569.82L661.96 580l17.22 10.18" stroke="#000" stroke-width="2" fill="none"/><use xlink:href="#d" transform="matrix(1,0,0,1,733.1377777777777,537.1111111111111) translate(0.0049999999999954525 29.555555555555557)"/><use xlink:href="#e" transform="matrix(1,0,0,1,733.1377777777777,537.1111111111111) translate(74.92055555555557 29.555555555555557)"/><use xlink:href="#h" transform="matrix(1,0,0,1,733.1377777777777,537.1111111111111) translate(160.13388888888892 29.555555555555557)"/><use xlink:href="#i" transform="matrix(1,0,0,1,733.1377777777777,537.1111111111111) translate(242.17388888888894 29.555555555555557)"/><path d="M640 301v58" fill="none"/><path d="M640 301v9.67m0 9.66v19.34m0 9.66V359" stroke="#000" stroke-width="2" fill="none"/><path d="M641 301h-2v-1h2z"/><path d="M1120 361v58" fill="none"/><path d="M1120 361v9.67m0 9.66v19.34m0 9.66V419" stroke="#000" stroke-width="2" fill="none"/><path d="M1121 361h-2v-1h2z"/><path d="M640 421v158" fill="none"/><path d="M640 421v10.53m0 10.54v21.06m0 10.54v21.06m0 10.54v21.06m0 10.54v21.06m0 10.54V579" stroke="#000" stroke-width="2" fill="none"/><path d="M641 421h-2v-1h2z"/><path d="M1100 480l-458.04-.06" fill="none"/><path d="M1100 480h-19.08m-19.1 0h-38.16m-19.08 0l-38.17-.02m-19.08 0h-38.17m-19.08 0H851.9m-19.1 0l-38.16-.02m-19.08 0H737.4m-19.1 0h-38.17m-19.08 0l-19.1-.02M660.04 469.26l-18.08 10.68 18.08 10.7" stroke="#000" stroke-width="2" fill="none"/><path d="M1099 639.74H661.96" fill="none"/><path d="M1099 639.74h-20.8m-20.82 0h-41.62m-20.82 0h-41.62m-20.8 0h-41.63m-20.82 0h-41.63m-20.8 0H766m-20.8 0h-41.63m-20.82 0h-20.82M679.18 629.56l-17.22 10.18 17.22 10.18" stroke="#000" stroke-width="2" fill="none"/><g><use xlink:href="#j" transform="matrix(1,0,0,1,869.4666666666667,596.8497213458828) translate(0.005000000000000782 29.555555555555557)"/></g><path d="M1099 700H661.96" fill="none"/><path d="M1099 700h-20.8m-20.82 0h-41.62m-20.82 0h-41.62m-20.8 0h-41.63m-20.82 0h-41.63m-20.8 0H766m-20.8 0h-41.63m-20.82 0h-20.82M679.18 689.82L661.96 700l17.22 10.18" stroke="#000" stroke-width="2" fill="none"/><g><use xlink:href="#d" transform="matrix(1,0,0,1,706.2422222222231,657.111111111111) translate(0.0049999999999954525 29.555555555555557)"/><use xlink:href="#k" transform="matrix(1,0,0,1,706.2422222222231,657.111111111111) translate(74.92055555555557 29.555555555555557)"/><use xlink:href="#e" transform="matrix(1,0,0,1,706.2422222222231,657.111111111111) translate(128.71166666666667 29.555555555555557)"/><use xlink:href="#h" transform="matrix(1,0,0,1,706.2422222222231,657.111111111111) translate(213.925 29.555555555555557)"/><use xlink:href="#i" transform="matrix(1,0,0,1,706.2422222222231,657.111111111111) translate(295.96500000000003 29.555555555555557)"/></g><defs><path d="M582-51c-43 33-119 63-202 61C165 1 46-125 46-344c0-225 128-350 349-360 85-1 142 19 197 46l-26 81c-50-33-103-62-184-58-161 7-238 122-238 291 0 170 76 279 241 285 71 0 124-25 172-53" id="l"/><path d="M156-725V0H71v-725h85" id="m"/><path d="M167-632c1 30-23 54-54 53-32 1-54-22-54-53s22-56 54-55c31-1 55 25 54 55zm-11 129V0H71v-503h85" id="n"/><path d="M386-299c10-94-32-153-114-153-85 0-131 65-141 153h255zM297-58c61 0 103-21 140-46l20 61c-37 31-98 54-168 53C128 11 38-89 41-252c3-156 80-261 233-261 151 0 219 106 194 274H128c4 121 60 181 169 181" id="o"/><path d="M408-349c1-70-33-95-99-96-81-1-123 46-153 98V0H71v-503h80c2 29-1 64 5 90 27-57 88-102 175-100 102 0 163 55 163 160V0h-86v-349" id="p"/><path d="M319-9c-23 11-55 19-90 19-95 0-139-52-139-147v-304H30v-62h60v-96h86v96h126v62H176v300c1 51 11 82 61 82 24 0 50-6 67-15" id="q"/><g id="a"><use transform="matrix(0.031111111111111114,0,0,0.031111111111111114,0,0)" xlink:href="#l"/><use transform="matrix(0.031111111111111114,0,0,0.031111111111111114,19.25777777777778,0)" xlink:href="#m"/><use transform="matrix(0.031111111111111114,0,0,0.031111111111111114,26.32,0)" xlink:href="#n"/><use transform="matrix(0.031111111111111114,0,0,0.031111111111111114,33.35111111111111,0)" xlink:href="#o"/><use transform="matrix(0.031111111111111114,0,0,0.031111111111111114,49.34222222222222,0)" xlink:href="#p"/><use transform="matrix(0.031111111111111114,0,0,0.031111111111111114,66.76444444444445,0)" xlink:href="#q"/><path d="M-1.56 3.45h80.73v2.02H-1.56z"/></g><path d="M485-195C482-48 378 6 231 10 136 12 72-15 21-49l29-76c46 37 104 66 188 66 112 0 184-79 142-179-58-82-201-83-274-150-35-30-61-69-60-133 0-119 97-185 224-183 86-2 142 17 190 41l-23 77c-71-66-313-82-304 60 7 111 133 115 215 154 72 34 136 74 137 177" id="r"/><path d="M320-423c-84-3-135 40-164 97V0H71v-503h75c4 36 3 76 10 109 30-61 77-110 164-114v85" id="s"/><path d="M14-503h89L248-58l143-445h79L302 0H181" id="t"/><g id="b"><use transform="matrix(0.031111111111111114,0,0,0.031111111111111114,0,0)" xlink:href="#r"/><use transform="matrix(0.031111111111111114,0,0,0.031111111111111114,16.333333333333336,0)" xlink:href="#o"/><use transform="matrix(0.031111111111111114,0,0,0.031111111111111114,32.32444444444445,0)" xlink:href="#s"/><use transform="matrix(0.031111111111111114,0,0,0.031111111111111114,43.835555555555565,0)" xlink:href="#t"/><use transform="matrix(0.031111111111111114,0,0,0.031111111111111114,58.582222222222235,0)" xlink:href="#o"/><use transform="matrix(0.031111111111111114,0,0,0.031111111111111114,74.57333333333335,0)" xlink:href="#s"/><path d="M-1.56 3.45h88.73v2.02H-1.56z"/></g><path fill="#333" d="M582-51c-43 33-119 63-202 61C165 1 46-125 46-344c0-225 128-350 349-360 85-1 142 19 197 46l-26 81c-50-33-103-62-184-58-161 7-238 122-238 291 0 170 76 279 241 285 71 0 124-25 172-53" id="u"/><path fill="#333" d="M528-252c0 160-90 262-245 262S41-93 41-252c0-160 87-261 242-261s245 101 245 261zm-400 0c2 116 45 199 155 199 111 0 158-82 158-199s-47-198-158-198c-110 0-153 82-155 198" id="v"/><path fill="#333" d="M408-349c1-70-33-95-99-96-81-1-123 46-153 98V0H71v-503h80c2 29-1 64 5 90 27-57 88-102 175-100 102 0 163 55 163 160V0h-86v-349" id="w"/><path fill="#333" d="M386-299c10-94-32-153-114-153-85 0-131 65-141 153h255zM297-58c61 0 103-21 140-46l20 61c-37 31-98 54-168 53C128 11 38-89 41-252c3-156 80-261 233-261 151 0 219 106 194 274H128c4 121 60 181 169 181" id="x"/><path fill="#333" d="M438-34c-35 26-86 44-148 44C131 3 41-91 41-252c0-189 140-289 337-252 24 6 44 14 60 25l-25 76c-37-25-64-44-122-44-110 6-160 80-163 195-2 123 60 193 175 194 44-1 88-18 116-39" id="y"/><path fill="#333" d="M319-9c-23 11-55 19-90 19-95 0-139-52-139-147v-304H30v-62h60v-96h86v96h126v62H176v300c1 51 11 82 61 82 24 0 50-6 67-15" id="z"/><g id="c"><use transform="matrix(0.031111111111111114,0,0,0.031111111111111114,0,0)" xlink:href="#u"/><use transform="matrix(0.031111111111111114,0,0,0.031111111111111114,19.102222222222224,0)" xlink:href="#v"/><use transform="matrix(0.031111111111111114,0,0,0.031111111111111114,36.80444444444445,0)" xlink:href="#w"/><use transform="matrix(0.031111111111111114,0,0,0.031111111111111114,54.226666666666674,0)" xlink:href="#w"/><use transform="matrix(0.031111111111111114,0,0,0.031111111111111114,71.6488888888889,0)" xlink:href="#x"/><use transform="matrix(0.031111111111111114,0,0,0.031111111111111114,87.64000000000001,0)" xlink:href="#y"/><use transform="matrix(0.031111111111111114,0,0,0.031111111111111114,102.38666666666668,0)" xlink:href="#z"/></g><path fill="#333" d="M485-195C482-48 378 6 231 10 136 12 72-15 21-49l29-76c46 37 104 66 188 66 112 0 184-79 142-179-58-82-201-83-274-150-35-30-61-69-60-133 0-119 97-185 224-183 86-2 142 17 190 41l-23 77c-71-66-313-82-304 60 7 111 133 115 215 154 72 34 136 74 137 177" id="A"/><path fill="#333" d="M131-252c0 114 45 201 152 201 113 0 166-81 166-199 0-119-53-202-166-202-106 0-152 87-152 200zm140-261c80 0 134 35 166 87v-299h85V0h-70l-10-97C411-37 358 14 270 10 122 4 44-96 44-252s79-261 227-261" id="B"/><g id="d"><use transform="matrix(0.031111111111111114,0,0,0.031111111111111114,0,0)" xlink:href="#A"/><use transform="matrix(0.031111111111111114,0,0,0.031111111111111114,16.333333333333336,0)" xlink:href="#x"/><use transform="matrix(0.031111111111111114,0,0,0.031111111111111114,32.32444444444445,0)" xlink:href="#w"/><use transform="matrix(0.031111111111111114,0,0,0.031111111111111114,49.74666666666668,0)" xlink:href="#B"/></g><path fill="#333" d="M524-503c-11 220-2 462-5 690h-85V-86c-32 55-83 100-167 96C119 4 41-96 41-252s79-261 227-261c80 0 135 36 167 88 2-26 6-58 10-78h79zM128-252c0 114 45 201 152 201 113 0 166-81 166-199 0-119-53-202-166-202-106 0-152 87-152 200" id="C"/><path fill="#333" d="M395-90C367-34 310 12 222 10 121 8 66-54 66-164v-339h86v339c-1 67 29 104 94 104 83 0 118-44 149-101v-342h85V0h-75c-4-29-3-64-10-90" id="D"/><path fill="#333" d="M320-423c-84-3-135 40-164 97V0H71v-503h75c4 36 3 76 10 109 30-61 77-110 164-114v85" id="E"/><path fill="#333" d="M53 115c32 14 82 21 110-5 15-12 32-33 50-64L14-503h92L259-64l153-439h77C417-310 353-106 274 80c-33 81-117 143-232 104" id="F"/><g id="e"><use transform="matrix(0.031111111111111114,0,0,0.031111111111111114,0,0)" xlink:href="#C"/><use transform="matrix(0.031111111111111114,0,0,0.031111111111111114,18.355555555555558,0)" xlink:href="#D"/><use transform="matrix(0.031111111111111114,0,0,0.031111111111111114,35.497777777777785,0)" xlink:href="#x"/><use transform="matrix(0.031111111111111114,0,0,0.031111111111111114,51.488888888888894,0)" xlink:href="#E"/><use transform="matrix(0.031111111111111114,0,0,0.031111111111111114,62.84444444444445,0)" xlink:href="#F"/></g><path fill="#333" d="M236-204L96 0H16l182-261L37-503h102l122 182 125-182h80L299-263 474 0H373" id="G"/><g id="f"><use transform="matrix(0.031111111111111114,0,0,0.031111111111111114,0,0)" xlink:href="#z"/><use transform="matrix(0.031111111111111114,0,0,0.031111111111111114,10.702222222222224,0)" xlink:href="#x"/><use transform="matrix(0.031111111111111114,0,0,0.031111111111111114,26.537777777777784,0)" xlink:href="#G"/><use transform="matrix(0.031111111111111114,0,0,0.031111111111111114,41.78222222222223,0)" xlink:href="#z"/></g><path fill="#333" d="M147-252c1 121 50 201 164 201 105 0 150-78 150-201 0-121-46-201-150-201-114 0-162 81-164 201zm402 0c0 157-74 262-225 262-81 0-135-40-168-92v269H71v-690h75l6 89c34-56 89-102 176-99 149 5 221 105 221 261" id="H"/><path fill="#333" d="M125-135c-2 53 45 83 95 83 69 2 110-42 131-87v-95c-119 3-225-9-226 99zm311-205c1 114-7 237 7 340h-76c-6-21-10-48-12-74-29 49-74 84-153 84C108 6 40-36 40-130c0-145 147-160 311-157 5-104-15-166-118-162-63-1-110 28-146 56l-23-70c44-30 107-48 180-50 124 1 190 50 192 173" id="I"/><path fill="#333" d="M299-444c-82 1-112 47-143 103V0H71v-503h75c4 29 3 64 10 90 28-56 81-102 168-100 80 1 133 40 145 112 27-66 84-112 173-112 96 1 151 58 151 160V0h-86v-342c1-67-29-101-90-102-82 2-113 56-143 112V0h-85v-352c1-67-29-90-90-92" id="J"/><path fill="#333" d="M398-142C398 32 148 37 26-30l28-71c52 51 259 83 259-35 0-98-157-80-216-134-30-22-51-52-51-104-10-155 215-162 333-111l-20 70c-54-49-279-62-224 67 75 81 263 42 263 206" id="K"/><g id="g"><use transform="matrix(0.031111111111111114,0,0,0.031111111111111114,0,0)" xlink:href="#H"/><use transform="matrix(0.031111111111111114,0,0,0.031111111111111114,18.200000000000003,0)" xlink:href="#I"/><use transform="matrix(0.031111111111111114,0,0,0.031111111111111114,33.81777777777778,0)" xlink:href="#E"/><use transform="matrix(0.031111111111111114,0,0,0.031111111111111114,44.39555555555555,0)" xlink:href="#I"/><use transform="matrix(0.031111111111111114,0,0,0.031111111111111114,60.013333333333335,0)" xlink:href="#J"/><use transform="matrix(0.031111111111111114,0,0,0.031111111111111114,86.73777777777778,0)" xlink:href="#x"/><use transform="matrix(0.031111111111111114,0,0,0.031111111111111114,102.72888888888889,0)" xlink:href="#z"/><use transform="matrix(0.031111111111111114,0,0,0.031111111111111114,113.43111111111112,0)" xlink:href="#x"/><use transform="matrix(0.031111111111111114,0,0,0.031111111111111114,129.42222222222225,0)" xlink:href="#E"/><use transform="matrix(0.031111111111111114,0,0,0.031111111111111114,140.4666666666667,0)" xlink:href="#K"/></g><path fill="#333" d="M156-725V0H71v-725h85" id="L"/><g id="h"><use transform="matrix(0.031111111111111114,0,0,0.031111111111111114,0,0)" xlink:href="#E"/><use transform="matrix(0.031111111111111114,0,0,0.031111111111111114,10.733333333333334,0)" xlink:href="#x"/><use transform="matrix(0.031111111111111114,0,0,0.031111111111111114,26.724444444444448,0)" xlink:href="#K"/><use transform="matrix(0.031111111111111114,0,0,0.031111111111111114,40.25777777777778,0)" xlink:href="#D"/><use transform="matrix(0.031111111111111114,0,0,0.031111111111111114,57.400000000000006,0)" xlink:href="#L"/><use transform="matrix(0.031111111111111114,0,0,0.031111111111111114,64.46222222222222,0)" xlink:href="#z"/></g><path fill="#333" d="M30-503h88l87 439 120-439h81L523-72l86-431h77L582 0H461L358-379 256 0H135" id="M"/><g id="i"><use transform="matrix(0.031111111111111114,0,0,0.031111111111111114,0,0)" xlink:href="#E"/><use transform="matrix(0.031111111111111114,0,0,0.031111111111111114,10.733333333333334,0)" xlink:href="#v"/><use transform="matrix(0.031111111111111114,0,0,0.031111111111111114,28.280000000000005,0)" xlink:href="#M"/></g><path fill="#333" d="M165-50c1 31-25 57-57 56-32 1-59-25-58-56-1-33 26-58 58-57 33-1 58 24 57 57" id="N"/><g id="j"><use transform="matrix(0.031111111111111114,0,0,0.031111111111111114,0,0)" xlink:href="#N"/><use transform="matrix(0.031111111111111114,0,0,0.031111111111111114,6.688888888888889,0)" xlink:href="#N"/><use transform="matrix(0.031111111111111114,0,0,0.031111111111111114,13.377777777777778,0)" xlink:href="#N"/></g><g id="k"><use transform="matrix(0.031111111111111114,0,0,0.031111111111111114,0,0)" xlink:href="#L"/><use transform="matrix(0.031111111111111114,0,0,0.031111111111111114,7.062222222222223,0)" xlink:href="#I"/><use transform="matrix(0.031111111111111114,0,0,0.031111111111111114,22.68,0)" xlink:href="#K"/><use transform="matrix(0.031111111111111114,0,0,0.031111111111111114,36.21333333333334,0)" xlink:href="#z"/></g></defs></g></svg>